/*
  $Id$
*/

#define c1_width 20
#define c1_height 20
#define c1_x_hot 4
#define c1_y_hot 4
static unsigned char c1_bits[ ] = {
  0x7C, 0x00, 0x00,
  0x82, 0x00, 0x00,
  0x11, 0x01, 0x00,
  0x11, 0x01, 0x00,
  0x7D, 0xFF, 0x07,
  0x11, 0x01, 0x04,
  0x11, 0x45, 0x04,
  0x82, 0x00, 0x04,
  0x7C, 0x44, 0x04,
  0x10, 0x00, 0x04,
  0x50, 0x45, 0x04,
  0x10, 0x00, 0x04,
  0x10, 0x40, 0x04,
  0x10, 0x00, 0x04,
  0x50, 0x55, 0x04,
  0x10, 0x00, 0x04,
  0x10, 0x00, 0x04,
  0x10, 0x00, 0x04,
  0xF0, 0xFF, 0x07,
  0x00, 0x00, 0x00 };
