/*
  $Id$
*/

#define c4_width 20
#define c4_height 20
#define c4_x_hot 4
#define c4_y_hot 4
static unsigned char c4_bits[] = {
  0x00, 0x02, 0x00,
  0x00, 0x02, 0x00,
  0x00, 0x02, 0x00,
  0x00, 0x02, 0x00,
  0x00, 0x02, 0x00,
  0x00, 0x02, 0x00,
  0x00, 0x02, 0x00,
  0x00, 0x02, 0x00,
  0x00, 0x02, 0x00,
  0xFF, 0xFF, 0x03,
  0x00, 0x02, 0x00,
  0x00, 0x02, 0x00,
  0x00, 0x02, 0x00,
  0x00, 0x02, 0x00,
  0x00, 0x02, 0x00,
  0x00, 0x02, 0x00,
  0x00, 0x02, 0x00,
  0x00, 0x02, 0x00,
  0x00, 0x02, 0x00,
  0x00, 0x00, 0x00 };
