/*
  $Id$
*/

#define c2_width 20
#define c2_height 20
#define c2_x_hot 7
#define c2_y_hot 11
static unsigned char c2_bits[] = {
  0x80, 0x01, 0x00,
  0x70, 0x0E, 0x00,
  0x48, 0x12, 0x00,
  0x48, 0x12, 0x00,
  0x4E, 0x12, 0x00,
  0x49, 0x12, 0x00,
  0x49, 0x52, 0x00,
  0x49, 0xB2, 0x00,
  0x49, 0x92, 0x00,
  0x49, 0x92, 0x00,
  0x09, 0x90, 0x00,
  0x01, 0x90, 0x00,
  0x02, 0x80, 0x00,
  0x02, 0x40, 0x00,
  0x02, 0x20, 0x00,
  0x04, 0x10, 0x00,
  0x08, 0x08, 0x00,
  0x10, 0x04, 0x00,
  0x10, 0x04, 0x00,
  0x10, 0x04, 0x00 };
