/*
  $Id$
*/

#define c3_width 20
#define c3_height 20
#define c3_x_hot 5
#define c3_y_hot 5
static unsigned char c3_bits[ ] = {
  0xE0, 0x07, 0x00,
  0x18, 0x0F, 0x00,
  0x04, 0x14, 0x00,
  0xFA, 0x28, 0x00,
  0xAA, 0x28, 0x00,
  0xF9, 0x50, 0x00,
  0xA9, 0x50, 0x00,
  0xF9, 0x50, 0x00,
  0x02, 0x28, 0x00,
  0x02, 0x28, 0x00,
  0x04, 0x14, 0x00,
  0x18, 0x0F, 0x00,
  0xE0, 0x1F, 0x00,
  0x00, 0x1F, 0x00,
  0x00, 0x1F, 0x00,
  0x00, 0x3F, 0x00,
  0x00, 0x3E, 0x00,
  0x00, 0x3E, 0x00,
  0x00, 0x3E, 0x00,
  0x00, 0x1C, 0x00 };
