/*
  $Id$
*/

#define cursor_6_width 21
#define cursor_6_height 21
#define cursor_6_x_hot 11
#define cursor_6_y_hot 2
static unsigned char cursor_6_bits[] = {
  0x00, 0x00, 0x00,
  0x00, 0x04, 0x00,
  0x00, 0x0e, 0x00,
  0x00, 0x0e, 0x00,
  0x00, 0x1f, 0x00,
  0x00, 0x1f, 0x00,
  0x80, 0x3f, 0x00,
  0x80, 0x3f, 0x00,
  0xc0, 0x7f, 0x00,
  0xc0, 0x7f, 0x00,
  0x60, 0xc4, 0x00,
  0x00, 0x04, 0x00,
  0x00, 0x04, 0x00,
  0x00, 0x04, 0x00,
  0x00, 0x04, 0x00,
  0x00, 0x04, 0x00,
  0x00, 0x04, 0x00,
  0x00, 0x04, 0x00,
  0x00, 0x04, 0x00,
  0x00, 0x04, 0x00,
  0x00, 0x00, 0x00 };
