/*
  $Id$
*/

#define cursor_5_width 16
#define cursor_5_height 16
#define cursor_5_x_hot 7
#define cursor_5_y_hot 7
static unsigned char cursor_5_bits[] = {
  0x80, 0x00,
  0x80, 0x00,
  0xC0, 0x01,
  0xB0, 0x06,
  0x88, 0x08,
  0x88, 0x08,
  0x04, 0x10,
  0x1F, 0x7C,
  0x04, 0x10,
  0x88, 0x08,
  0x88, 0x08,
  0xB0, 0x06,
  0xC0, 0x01,
  0x80, 0x00,
  0x80, 0x00,
  0x00, 0x00 };
