/*
  $Id$

  Copyright (c) 2001 Jens Thoms Toerring

  This file is part of fsc2.

  Fsc2 is free software; you can redistribute it and/or modify
  it under the terms of the GNU General Public License as published by
  the Free Software Foundation; either version 2, or (at your option)
  any later version.

  Fsc2 is distributed in the hope that it will be useful,
  but WITHOUT ANY WARRANTY; without even the implied warranty of
  MERCHANTABILITY or FITNESS FOR A PARTICULAR PURPOSE.  See the
  GNU General Public License for more details.

  You should have received a copy of the GNU General Public License
  along with fsc2; see the file COPYING.  If not, write to
  the Free Software Foundation, 59 Temple Place - Suite 330,
  Boston, MA 02111-1307, USA.
*/

#define cursor_7_width 21
#define cursor_7_height 21
#define cursor_7_x_hot 19
#define cursor_7_y_hot 10
static unsigned char cursor_7_bits[] = {
  0x00, 0x00, 0x00,
  0x00, 0x00, 0x00,
  0x00, 0x00, 0x00,
  0x00, 0x00, 0x00,
  0x00, 0x00, 0x00,
  0x00, 0x04, 0x00,
  0x00, 0x1c, 0x00,
  0x00, 0x78, 0x00,
  0x00, 0xf8, 0x01,
  0x00, 0xf8, 0x07,
  0xfe, 0xff, 0x0f,
  0x00, 0xf8, 0x07,
  0x00, 0xf8, 0x01,
  0x00, 0x78, 0x00,
  0x00, 0x1c, 0x00,
  0x00, 0x04, 0x00,
  0x00, 0x00, 0x00,
  0x00, 0x00, 0x00,
  0x00, 0x00, 0x00,
  0x00, 0x00, 0x00,
  0x00, 0x00, 0x00 };
