/*
  $Id$

  Copyright (C) 1999-2002 Jens Thoms Toerring

  This file is part of fsc2.

  Fsc2 is free software; you can redistribute it and/or modify
  it under the terms of the GNU General Public License as published by
  the Free Software Foundation; either version 2, or (at your option)
  any later version.

  Fsc2 is distributed in the hope that it will be useful,
  but WITHOUT ANY WARRANTY; without even the implied warranty of
  MERCHANTABILITY or FITNESS FOR A PARTICULAR PURPOSE.  See the
  GNU General Public License for more details.

  You should have received a copy of the GNU General Public License
  along with fsc2; see the file COPYING.  If not, write to
  the Free Software Foundation, 59 Temple Place - Suite 330,
  Boston, MA 02111-1307, USA.
*/

#define cursor1_width 21
#define cursor1_height 21
#define cursor1_x_hot 5
#define cursor1_y_hot 5
static unsigned char cursor1_bits[] = {
  0x00, 0x00, 0x00,
  0xF8, 0x00, 0x00,
  0x04, 0x01, 0x00,
  0x22, 0x02, 0x00,
  0x22, 0x02, 0x00,
  0xFA, 0xFE, 0x0F,
  0x22, 0x02, 0x08,
  0x22, 0x8A, 0x08,
  0x04, 0x01, 0x08,
  0xF8, 0x88, 0x08,
  0x20, 0x00, 0x08,
  0xA0, 0x8A, 0x08,
  0x20, 0x00, 0x08,
  0x20, 0x80, 0x08,
  0x20, 0x00, 0x08,
  0xA0, 0xAA, 0x08,
  0x20, 0x00, 0x08,
  0x20, 0x00, 0x08,
  0x20, 0x00, 0x08,
  0xE0, 0xFF, 0x0F,
  0x00, 0x00, 0x00 };
