/*
  $Id$

  Copyright (C) 2001 Jens Thoms Toerring

  This file is part of fsc2.

  Fsc2 is free software; you can redistribute it and/or modify
  it under the terms of the GNU General Public License as published by
  the Free Software Foundation; either version 2, or (at your option)
  any later version.

  Fsc2 is distributed in the hope that it will be useful,
  but WITHOUT ANY WARRANTY; without even the implied warranty of
  MERCHANTABILITY or FITNESS FOR A PARTICULAR PURPOSE.  See the
  GNU General Public License for more details.

  You should have received a copy of the GNU General Public License
  along with fsc2; see the file COPYING.  If not, write to
  the Free Software Foundation, 59 Temple Place - Suite 330,
  Boston, MA 02111-1307, USA.
*/

#define cursor4_width 20
#define cursor4_height 20
#define cursor4_x_hot 9
#define cursor4_y_hot 9
static unsigned char cursor4_bits[] = {
  0x00, 0x02, 0x00,
  0x00, 0x02, 0x00,
  0x00, 0x02, 0x00,
  0x00, 0x02, 0x00,
  0x00, 0x02, 0x00,
  0x00, 0x02, 0x00,
  0x00, 0x02, 0x00,
  0x00, 0x02, 0x00,
  0x00, 0x00, 0x00,
  0xFF, 0xF8, 0x07,
  0x00, 0x00, 0x00,
  0x00, 0x02, 0x00,
  0x00, 0x02, 0x00,
  0x00, 0x02, 0x00,
  0x00, 0x02, 0x00,
  0x00, 0x02, 0x00,
  0x00, 0x02, 0x00,
  0x00, 0x02, 0x00,
  0x00, 0x02, 0x00,
  0x00, 0x00, 0x00 };
