/* XPM */
static char *fsc2[] = {
/* columns rows colors chars-per-pixel */
"43 21 251 2",
"   c #000000",
".  c #0A0A0A",
"X  c #041A1A",
"o  c #0B1616",
"O  c #0C1C1C",
"+  c #140303",
"@  c #130C0C",
"#  c #1F0D0D",
"$  c #151616",
"%  c #141D1D",
"&  c #191313",
"*  c #1A1E1E",
"=  c #002222",
"-  c #0C2323",
";  c #132323",
":  c #122D2D",
">  c #1D2727",
",  c #1B2C2C",
"<  c #270707",
"1  c #2C0D0D",
"2  c #261313",
"3  c #221D1D",
"4  c #2A1616",
"5  c #281818",
"6  c #310A0A",
"7  c #3D0101",
"8  c #351212",
"9  c #321E1E",
"0  c #3E1313",
"q  c #242B2B",
"w  c #233535",
"e  c #253A3A",
"r  c #2C3636",
"t  c #2D3E3E",
"y  c #363434",
"u  c #333939",
"i  c #3D3D3D",
"p  c #274242",
"a  c #2C4343",
"s  c #2B4C4C",
"d  c #3A4444",
"f  c #3E4949",
"g  c #410101",
"h  c #4C0101",
"j  c #4C0909",
"k  c #421414",
"l  c #510000",
"z  c #590404",
"x  c #5A0C0C",
"c  c #551818",
"v  c #591B1B",
"b  c #423D3D",
"n  c #4C3535",
"m  c #592020",
"M  c #660000",
"N  c #6F0000",
"B  c #6D1010",
"V  c #6F1919",
"C  c #700B0B",
"Z  c #7A0707",
"A  c #7B0B0B",
"S  c #7C1616",
"D  c #7C1C1C",
"F  c #612222",
"G  c #6F2C2C",
"H  c #752B2B",
"J  c #782929",
"K  c #763D3D",
"L  c #444242",
"P  c #444C4C",
"I  c #494646",
"U  c #4C4B4B",
"Y  c #405454",
"T  c #4B5757",
"R  c #4A5B5B",
"E  c #554242",
"W  c #514D4D",
"Q  c #594343",
"!  c #535454",
"~  c #585353",
"^  c #5A5C5C",
"/  c #446060",
"(  c #556565",
")  c #5D6363",
"_  c #5D6868",
"`  c #605E5E",
"'  c #734C4C",
"]  c #7D5B5B",
"[  c #636363",
"{  c #696464",
"}  c #6D6C6C",
"|  c #667878",
" . c #697777",
".. c #717272",
"X. c #757A7A",
"o. c #7C7676",
"O. c #7D7B7B",
"+. c #708585",
"@. c #798484",
"#. c #7F8F8F",
"$. c #870404",
"%. c #8A0000",
"&. c #890B0B",
"*. c #940202",
"=. c #9A0101",
"-. c #9D0909",
";. c #803333",
":. c #803C3C",
">. c #982323",
",. c #A20000",
"<. c #A30909",
"1. c #AA0202",
"2. c #AF0C0C",
"3. c #A81515",
"4. c #B50101",
"5. c #B30E0E",
"6. c #BB0101",
"7. c #BF0D0D",
"8. c #B51010",
"9. c #B62020",
"0. c #B52828",
"q. c #B92121",
"w. c #B63434",
"e. c #824242",
"r. c #874D4D",
"t. c #8A5151",
"y. c #975757",
"u. c #9B5A5A",
"i. c #826464",
"p. c #837D7D",
"a. c #8A7171",
"s. c #967C7C",
"d. c #A84444",
"f. c #B44949",
"g. c #A46969",
"h. c #AE7676",
"j. c #C30000",
"k. c #CC0505",
"l. c #CE1B1B",
"z. c #D40101",
"x. c #DD0101",
"c. c #CC2020",
"v. c #D42626",
"b. c #D62A2A",
"n. c #E30101",
"m. c #ED0000",
"M. c #E81E1E",
"N. c #F40000",
"B. c #FE0000",
"V. c #FC1515",
"C. c #FB1A1A",
"Z. c #E32525",
"A. c #EA2E2E",
"S. c #E63535",
"D. c #E53D3D",
"F. c #F52828",
"G. c #FE2626",
"H. c #F23535",
"J. c #F83939",
"K. c #C14F4F",
"L. c #D44343",
"P. c #DC5454",
"I. c #D77070",
"U. c #EE4747",
"Y. c #FD4C4C",
"T. c #FA5C5C",
"R. c #E66A6A",
"E. c #ED6060",
"W. c #E86A6A",
"Q. c #F16363",
"!. c #FA6262",
"~. c #FB7F7F",
"^. c #858383",
"/. c #858A8A",
"(. c #8B8484",
"). c #8E8C8C",
"_. c #899595",
"`. c #8B9D9D",
"'. c #958B8B",
"]. c #9C8D8D",
"[. c #949595",
"{. c #9B9A9A",
"}. c #95A3A3",
"|. c #9FA3A3",
" X c #9FAAAA",
".X c #97BCBC",
"XX c #AC8989",
"oX c #A19C9C",
"OX c #B58181",
"+X c #A4A5A5",
"@X c #A3AAAA",
"#X c #A8A7A7",
"$X c #ACABAB",
"%X c #A2B8B8",
"&X c #ACB6B6",
"*X c #B1AEAE",
"=X c #B4B3B3",
"-X c #BEBEBE",
";X c #B4C3C3",
":X c #BDC1C1",
">X c #C18383",
",X c #C39494",
"<X c #CAA4A4",
"1X c #CCBEBE",
"2X c #D0BABA",
"3X c #E09A9A",
"4X c #FF8181",
"5X c #F59A9A",
"6X c #FE9494",
"7X c #E5BEBE",
"8X c #F2ADAD",
"9X c #FCA8A8",
"0X c #F4B6B6",
"qX c #F3BDBD",
"wX c #FCB4B4",
"eX c #FBBCBC",
"rX c #C4C4C4",
"tX c #C2CBCB",
"yX c #CAC5C5",
"uX c #CCCBCB",
"iX c #C3D4D4",
"pX c #CBDBDB",
"aX c #D2CDCD",
"sX c #D5D4D4",
"dX c #D9D7D7",
"fX c #DBDBDB",
"gX c #D6E0E0",
"hX c #D6EAEA",
"jX c #D9E3E3",
"kX c #DCEBEB",
"lX c #E4CCCC",
"zX c #EBD4D4",
"xX c #F3CACA",
"cX c #FFC4C4",
"vX c #FFCBCB",
"bX c #FFD2D2",
"nX c #FDDCDC",
"mX c #E4E4E4",
"MX c #E6EBEB",
"NX c #EFE7E7",
"BX c #EBEBEB",
"VX c #E4F5F5",
"CX c #EBF2F2",
"ZX c #F2E4E4",
"AX c #F1ECEC",
"SX c #FDE4E4",
"DX c #FEEEEE",
"FX c #F3F2F2",
"GX c #F6FDFD",
"HX c #FEF4F4",
"JX c #FEFEFE",
/* pixels */
"JXJXJXJXJXJXHXzXNXJXJXJXJXJXJXJXJXJXJXJXJXJXJXJXJXJXJXJXJXJXJXJXJXJXGXGXJXJXJXJXJXJXJX",
"JXJXJXJXAXW.9.k.V.P.AXJXJXJXJXJXJXJXJXJXJXJXJXJXJXJXJXJXJXJXJX6XJ.G.Z.K.yXJXJXJXJXJXJX",
"JXJXJXGXU.6.o 9 z.n.E AXJXJXJXJXJXJXJXJXJXJXJXJXJXJXJXJXJXHXY.N.n.m.B.B.4.{.JXJXJXJXJX",
"JXJXJXlXB.<.e [ Q 6 ; O.FXJXJXJXJXJXJXJXJXJXJXJXJXJXJXJXJX4X1.1 3 9 A m.B.M }.JXJXJXJX",
"JXJXJX0XB.<.a p. X@.I [ &XGXJXJXJXJXJXJXJXJXJXJXJXJXJXJXDXl.. w U ^ / >.B.4.% yXJXJXJX",
"JXJXJXvXB.-.p /.rXAXtX[.,XxXCXJXJXJXJXJXJXJXSXnXnXGXJXJXSXj % ~ ..'. XXXB.6.% } zXJXJX",
"JX3XD.H.B.n.5.l.g.GXbXA.1.=.l.L.].JXJXJXZXQ.5.=.k.S.7XJXJX+Xy { [.=XaXlXB.=.; [ &XJXJX",
"JX1X5 z B.1.5 8 & '.G.M X , V n.+ |.JXzXM.N $ : v B.n.1XJXJXrXO.+XsXGX9XB.h , [  XBXJX",
"JXJXpXr.B.-.p [ ( :.B.j t { | 9.6 P :XJ.1.- I [ ) z.B.k tXJXJXfX:XAXJXY.6.o L } +XBXJX",
"JXJXJX0XB.<.t (. Xh.B.z.m  .&XXX# R y.B.x r [ (.+X] 7 * ! fXJXJXFXGXcXm.< q ! ^.$XBXJX",
"JXJXJXeXB.<.t ^.rXMXD.B.B.3.s.VX-XR 0.B.k f O.+XyXMX_.L [ [.AXJXJXHXF.g O I } [.rXAXJX",
"JXJXJXeXB.<.a ^.rXJXAXw.m.B.n.d.MXjXb.B.c R ).:XMXJXJX:X^.|.fXJXJXY.l O L [ (.#XfXJXJX",
"JXJXJXeXB.<.t ^.yXFXJXCX' ,.B.N.D hXT.B.&.Y oXiXHXJXGXJXmXuXBXJX!.l O b ` p. XdXAXJXJX",
"JXJXJXeXB.<.t p.iXeXH jXGX .C N.6.a f.B.n.n `.zXJXJX8XJ jXJXJXW.7 = d ( @.%X>Xa.JXJXJX",
"JXJXJXqXB.-.p ^.iXwX%.s CXJX.XZ.j.- Q n.B.k.t.aXAX5X7.@ ! kX~.%.0 H e.u.h.I.2.  [.GXJX",
"JXJXHXE.B.z.n (.pX8XB.C o.GXnXC.h > [ ;.m.B.B.V.V.z.1 r ^ L.B.B.B.B.B.B.B.B.l , W -XJX",
"JX<XS *.*.*.Z F ;XvX*.=.*.v.4.h o b } }.K =.n.x.=.2 q ! i.=.*.*.*.*.*.$.*.$.@ i } {.fX",
"JXBX( , e w r q ! AX#.; y 4 % > L ^ O.*XjX_ & 3 ; u ~  .[.+.w w w w w w e e y U @.*XfX",
"JXJXJXoXo.O.O.O. .'.JX=X .o.[ [ } /.{.rXAXJX{.) [ { O.[.*XmXyXO.O.O.O.O.O.O.X.O.).rXAX",
"JXJXJXJXaX-X-X-XrX-XuXJXaX-X-X$X+X&X:XzXJXJXJXuX#X#X#X-XfXFXJXmX-X-X1X:X1X-X-X-X-XdXJX",
"JXJXJXJXJXJXFXJXFXJXAXGXJXFXJXAXMXmXAXJXJXJXJXJXFXmXmXBXJXJXJXJXJXGXHXFXFXJXFXJXGXFXJX"
};
