/* XPM */
static char * printer[] = {
"32 26 9 1",
" 	c #FFFFFFFFFFFF",
".	c #A1A1A1A1A1A1",
"@	c #C71BBAEAC71B",
"#	c #000000000000",
"$	c #28A25D754924",
"%	c #AEBAAEBAAEBA",
"&	c #FFFFFFFF0000",
"*	c #AEBA555528A2",
"=	c #9E799A699E79",
"............####################",
"............#                  #",
"...........#                  ##",
"...........#  $$$$$$$$$$$$$   ##",
"..........#                  # #",
"..........#  $$$$$$$$$$$$$   # #",
".........#      % % % %     #  #",
".........#  $$$$$$$$$$$$$%  #  #",
"........#    % % % % %%%   #####",
"........#  $$$$$$$$$$$$    #....",
".......#    % % %%%%%%    #.....",
".....###                  ######",
"....#&#                  #*&*&##",
"...#&*####################$*&#&#",
"..#&*$$$$$$$$$$$$$$$$$$$$$*&#&*#",
".#&*&*&*&*&*&*&*&*&*&*&*&*&#&*&#",
"###########################&*&*#",
"#*&*&*&*&*&*&*&*&*&*&*&*&*#*&*&#",
"#&*&*&*&*&*&*&*########.*&#&*&*#",
"#*&*&*&*&*&*&*&#$$$$$$$=&*#*&*&#",
"#&*&*&*&*&*&*&*#$$$$$$$.*&#&*&*#",
"#*&*&*&*&*&*&*&#$$$$$$$=&*#*&*#.",
"#&*&*&*&*&*&*&*#%%=%%%=%*&#&*#..",
"#*&*&*&*&*&*&*&*&*&*&*&*&*#*#...",
"#&*&*&*&*&*&*&*&*&*&*&*&*&##....",
"###########################....."};
