/* XPM */
static char *undo[] = {
"27 30 3 1",
".	c #A1A1A1A1A1A1",
"x	c #000000000000",
",  c #FFFF00000000",
"..........xxxxxxx..........",
".........xxxxxxx...........",
"........xx,,,xx............",
".......xx,,,xx.............",
"......xx,,,xx..............",
".....xx,,,xx...............",
"....xx,,,xx................",
"...xx,,,xxxxxxxxxxxxx......"
"..xx,,,,,xxxxxxxxxxxxx.....",
".xx,,,,,,,,,,,,,,,,,,xx....",
"xx,,,,,,,,,,,,,,,,,,,,xx...",
".xx,,,,,,,,,,,,,,,,,,,,xx..",
"..xx,,,xxxxxxxxxxxxxxxxxxx.",
"...xx,,,xxxxxxxxxxxxxxxxxxx",
"....xx,,,xx.........xx,,,xx",
".....xx,,,xx........xx,,,xx",
"......xx,,,xx.......xx,,,xx",
".......xx,,,xx......xx,,,xx",
"........xx,,,xx.....xx,,,xx",
".........xxxxxxx....xx,,,xx",
"..........xxxxxxx...xx,,,xx",
"....................xx,,,xx",
"....................xx,,,xx",
"....xxxxxxxxxxxxxxxxxxxxxxx",
".....xxxxxxxxxxxxxxxxxxxxx.",
"......xx,,,,,,,,,,,,,,,xx..",
".......xx,,,,,,,,,,,,,xx...",
"......xx,,,,,,,,,,,,,xx....",
".....xxxxxxxxxxxxxxxxx.....",
"....xxxxxxxxxxxxxxxxx......"};
