/*
  $Id$
*/

#define ua_width 16
#define ua_height 16
static unsigned char ua_bits[] = {
  0x80, 0x00,
  0xC0, 0x01,
  0xE0, 0x03,
  0xF0, 0x07,
  0xF8, 0x0F,
  0xFC, 0x1F,
  0xC0, 0x01,
  0xC0, 0x01,
  0xC0, 0x01,
  0xC0, 0x01,
  0xC0, 0x01,
  0xC0, 0x01,
  0xC0, 0x01,
  0xC0, 0x01,
  0xC0, 0x01,
  0xC0, 0x01 };
