/*
 *  Copyright (C) 1999-2011 Jens Thoms Toerring
 *
 *  This file is part of fsc2.
 *
 *  Fsc2 is free software; you can redistribute it and/or modify
 *  it under the terms of the GNU General Public License as published by
 *  the Free Software Foundation; either version 3, or (at your option)
 *  any later version.
 *
 *  Fsc2 is distributed in the hope that it will be useful,
 *  but WITHOUT ANY WARRANTY; without even the implied warranty of
 *  MERCHANTABILITY or FITNESS FOR A PARTICULAR PURPOSE.  See the
 *  GNU General Public License for more details.
 *
 *  You should have received a copy of the GNU General Public License
 *  along with this program.  If not, see <http://www.gnu.org/licenses/>.
 */

#define cursor8_width 21
#define cursor8_height 21
#define cursor8_x_hot 1
#define cursor8_y_hot 10
static char cursor8_bits[] = {
	0x00, 0x00, 0x00,
	0x00, 0x00, 0x00,
	0x00, 0x00, 0x00,
	0x00, 0x00, 0x00,
	0x00, 0x00, 0x00,
	0x00, 0x04, 0x00,
	0x00, 0x07, 0x00,
	0xc0, 0x03, 0x00,
	0xf0, 0x03, 0x00,
	0xfc, 0x03, 0x00,
	0xfe, 0xff, 0x0f,
	0xfc, 0x03, 0x00,
	0xf0, 0x03, 0x00,
	0xc0, 0x03, 0x00,
	0x00, 0x07, 0x00,
	0x00, 0x04, 0x00,
	0x00, 0x00, 0x00,
	0x00, 0x00, 0x00,
	0x00, 0x00, 0x00,
	0x00, 0x00, 0x00,
	0x00, 0x00, 0x00
};
