/* XPM */
static char * scratch[] = {
"16 16 2 1",
" 	c white",
".	c red",
"   ....    .... ",
"  .. ... ... ...",
" ..   .. ..     ",
" ..       ....  ",
" ..          .. ",
" ..      ..   ..",
".....     ..... ",
".....       ..  ",
" ..        ...  ",
" ..   ..  .. .. ",
" ..  ....    .. ",
" .. ..      ..  ",
" .. ..      ..  ",
" .. ..     ..   ",
" ..  .... ..  ..",
" .    ..  ......"};
